<?xml version="1.0" standalone="no"?><!DOCTYPE svg PUBLIC "-//W3C//DTD SVG 1.1//EN" "http://www.w3.org/Graphics/SVG/1.1/DTD/svg11.dtd"><svg t="1545196789689" class="icon" style="" viewBox="0 0 1024 1024" version="1.1" xmlns="http://www.w3.org/2000/svg" p-id="2094" xmlns:xlink="http://www.w3.org/1999/xlink" width="200" height="200"><defs><style type="text/css"></style></defs><path d="M409.49 893.93a81.49 81.49 0 0 1-57.68-23.75l-41.3-41.3c-18-18.16-21.36-46.21-8.12-66.89a29.32 29.32 0 0 0-40.48-40.34c-20.55 13.24-48.67 9.83-66.69-8.05l-41.36-41.36a81.69 81.69 0 0 1 0-115.49l402.86-402.87a81.94 81.94 0 0 1 115.49 0l41.23 41.23c17.88 17.88 21.43 45.94 8.33 66.69a29.14 29.14 0 0 0 4 36.45 29.62 29.62 0 0 0 36.38 4c20.48-13.17 48.74-9.62 66.69 8.26l41.23 41.23a81.57 81.57 0 0 1-0.07 115.58L467.23 870.1a81.32 81.32 0 0 1-57.74 23.83z m-41.57-106.49l33.24 33.24a12 12 0 0 0 16.65 0l402.86-402.85a11.7 11.7 0 0 0 0.07-16.59l-33.38-33.38c-37.41 17.13-81.23 9.49-111-20.2a98.49 98.49 0 0 1-20.26-111.05l-33.31-33.31a11.91 11.91 0 0 0-16.72 0.07L203.28 606.15a11.82 11.82 0 0 0 0 16.65l33.31 33.31c37.13-16.59 81.91-8.94 111.06 20.2a98.73 98.73 0 0 1 20.27 111.13z m-6.55 12a0.07 0.07 0 0 1-0.07 0.07 0.07 0.07 0 0 0 0.06-0.05zM224.58 662.6c-0.07 0.07-0.14 0.07-0.2 0.14s0.13-0.07 0.2-0.14z m575.07-301.36c-0.07 0.07-0.14 0.14-0.2 0.14s0.13-0.07 0.2-0.14z" fill="#33A3F4" p-id="2095"></path><path d="M472.76 390.66a34.78 34.78 0 0 1-24.76-10.3L430.71 363a34.94 34.94 0 0 1 49.56-49.28l17.27 17.34a34.95 34.95 0 0 1-24.78 59.59zM588.12 506a34.83 34.83 0 0 1-24.71-10.24l-35.15-35.08a34.94 34.94 0 0 1 49.42-49.42l35.15 35.08A34.95 34.95 0 0 1 588.12 506zM685.59 603.49a34.83 34.83 0 0 1-24.71-10.24l-17.34-17.34A34.94 34.94 0 0 1 693 526.5l17.34 17.34a34.95 34.95 0 0 1-24.71 59.66z" fill="#33A3F4" p-id="2096"></path></svg>